<svg id="Layer_1" data-name="Layer 1" xmlns="http://www.w3.org/2000/svg" viewBox="0 0 288 113.67"><defs><style>.cls-1{fill:#fff;}.cls-2{fill:#27a39e;stroke:#27a39e;stroke-miterlimit:10;stroke-width:0.1px;}</style></defs><title>ar_logo</title><path class="cls-1" d="M145.75,26.22a36.53,36.53,0,0,0-7.53-11.37,37.08,37.08,0,0,0-11-7.53v96.62h21.39V40.15A34.67,34.67,0,0,0,145.75,26.22Z"/><path class="cls-1" d="M225.95,76.15l47.14,27.79H231l-61.45-36.3a5.91,5.91,0,0,1-3.09-3.54,8.13,8.13,0,0,1-.15-4.44A6.76,6.76,0,0,1,168.64,56a6.56,6.56,0,0,1,4.52-1.51H238.6a13.88,13.88,0,0,0,13.86-13.93A13.88,13.88,0,0,0,238.6,26.6H148.91v77.34h-.3V40.15a34.67,34.67,0,0,0-2.86-13.93,36.53,36.53,0,0,0-7.53-11.37,37.08,37.08,0,0,0-11-7.53L110.34,4.91,238.6,4.76a34.26,34.26,0,0,1,13.86,2.79,34.93,34.93,0,0,1,11.3,7.68,35.88,35.88,0,0,1,7.61,11.37,35.34,35.34,0,0,1,0,27.86,36.4,36.4,0,0,1-7.61,11.3,34.53,34.53,0,0,1-11.3,7.53,34.31,34.31,0,0,1-13.86,2.86Z"/><path class="cls-2" d="M145.75,26.22a36.53,36.53,0,0,0-7.53-11.37,37.08,37.08,0,0,0-11-7.53c-.08-.08-.23-.08-.3-.15A34.88,34.88,0,0,0,113,4.38H43.93A34.62,34.62,0,0,0,30,7.17a36.61,36.61,0,0,0-11.3,7.68,38.12,38.12,0,0,0-7.61,11.37A35.94,35.94,0,0,0,8.31,40.15v63.79H30V80.07h96.92v23.87h21.69V40.15A34.67,34.67,0,0,0,145.75,26.22Zm-18.83,32H30V40.15A13.89,13.89,0,0,1,43.93,26.22H113a13.88,13.88,0,0,1,13.93,13.93Z"/><polygon class="cls-1" points="261.31 97.21 8.31 97.75 8.31 109.34 281.67 108.67 261.31 97.21"/></svg>